<?xml version="1.0" standalone="no"?>
<!DOCTYPE svg PUBLIC "-//W3C//DTD SVG 20010904//EN"
 "http://www.w3.org/TR/2001/REC-SVG-20010904/DTD/svg10.dtd">
<svg version="1.0" xmlns="http://www.w3.org/2000/svg"
 width="1280.000000pt" height="1280.000000pt" viewBox="0 0 1280.000000 1280.000000"
 preserveAspectRatio="xMidYMid meet">
<metadata>
Created by potrace 1.11, written by Peter Selinger 2001-2013
</metadata>
<g transform="translate(0.000000,1280.000000) scale(0.100000,-0.100000)"
fill="#000000" stroke="none">
<path d="M4452 8680 c-136 -75 -315 -207 -443 -327 -88 -83 -258 -283 -287
-337 l-23 -43 -82 -7 c-408 -32 -1056 -168 -1472 -308 -340 -114 -843 -343
-1198 -545 -302 -171 -442 -264 -674 -446 l-153 -120 21 -29 c23 -31 56 -55
159 -111 36 -19 74 -45 85 -58 l20 -22 -36 7 c-96 17 -349 0 -365 -25 -7 -12
-2 -12 91 7 60 11 108 13 193 8 99 -6 121 -10 165 -35 29 -16 96 -52 150 -80
78 -41 109 -64 154 -115 63 -72 132 -120 184 -130 19 -4 46 -20 62 -38 l29
-31 -20 35 -19 36 29 26 c19 17 28 36 28 56 0 16 7 67 16 113 12 68 21 91 47
119 33 35 17 27 -40 -21 -48 -41 -97 -54 -203 -53 -90 1 -105 5 -270 63 -119
43 -185 71 -205 90 -16 15 -64 45 -105 66 -41 21 -88 47 -104 58 l-30 21 35 9
c32 9 113 4 171 -9 23 -5 33 0 62 32 l35 38 26 -24 27 -25 23 27 c13 16 28 36
34 45 8 15 14 16 43 5 48 -17 51 -16 72 23 18 32 23 35 66 35 51 0 70 11 149
84 28 26 41 34 36 21 -46 -113 31 -247 156 -270 111 -20 230 86 229 205 0 34
-34 105 -64 135 -14 13 -22 26 -18 29 15 8 79 19 109 18 26 -1 35 4 45 26 16
32 57 41 90 18 19 -14 23 -14 33 1 11 15 15 15 40 -5 15 -12 31 -22 35 -22 3
0 27 13 51 30 25 16 64 32 87 36 40 6 42 5 63 -30 24 -42 29 -43 54 -16 25 27
36 25 68 -11 26 -30 31 -31 77 -26 65 8 131 37 183 82 36 31 48 36 87 34 65
-2 65 -3 94 41 28 42 44 48 76 28 15 -10 29 -9 72 7 29 10 63 25 76 33 20 13
27 13 48 1 22 -11 32 -11 72 5 26 11 65 20 86 21 31 2 41 7 48 25 11 30 50 22
124 -25 31 -20 58 -34 61 -32 2 3 -5 20 -16 38 -26 42 -14 59 41 59 33 0 46
-6 72 -35 35 -38 51 -42 79 -20 14 10 25 11 42 3 18 -8 29 -6 53 12 25 19 39
22 74 17 34 -5 56 -1 97 18 60 28 88 31 115 10 14 -11 22 -11 38 -2 16 10 22
8 37 -12 23 -30 51 -22 51 13 0 32 14 40 39 24 17 -10 23 -9 40 6 17 15 24 16
35 7 12 -10 21 -9 45 5 24 14 32 15 45 5 12 -10 23 -10 51 -1 33 11 39 10 59
-9 29 -27 34 -27 72 10 l33 32 36 -22 c38 -22 65 -16 65 14 0 7 7 18 15 25 12
10 20 7 46 -14 37 -31 53 -32 113 -6 42 19 48 20 75 5 39 -19 51 -19 81 5 31
24 68 25 131 3 46 -17 51 -17 95 0 34 12 51 14 66 6 10 -6 32 -8 48 -4 16 4
37 1 48 -6 17 -10 24 -10 37 1 20 17 104 23 121 9 9 -7 20 -2 39 18 l27 28 15
-23 c15 -21 17 -21 34 -6 17 15 22 15 68 -2 41 -14 57 -16 86 -7 28 9 46 8 85
-5 43 -14 59 -14 114 -3 50 10 81 10 138 1 55 -8 89 -8 140 1 58 10 70 10 92
-4 18 -12 46 -16 103 -15 80 1 187 -11 281 -32 29 -7 68 -9 86 -6 25 5 39 1
59 -14 23 -18 37 -20 136 -17 102 3 111 2 111 -15 0 -21 14 -22 76 -6 42 12
47 11 62 -9 19 -24 44 -28 287 -41 124 -7 147 -11 199 -36 55 -27 65 -28 143
-23 54 4 112 1 166 -8 45 -8 113 -15 151 -15 66 0 70 -1 101 -36 33 -35 33
-35 63 -20 42 22 60 20 98 -9 25 -19 45 -25 84 -25 35 0 71 -9 117 -30 57 -26
78 -30 152 -30 71 0 97 -5 149 -27 60 -25 67 -26 123 -14 56 11 61 11 102 -13
35 -21 59 -26 144 -30 110 -5 131 -12 156 -50 15 -22 19 -23 47 -13 38 14 109
-3 162 -40 35 -24 39 -24 87 -12 48 12 51 11 123 -24 61 -30 83 -35 133 -35
41 1 95 -9 170 -31 135 -39 664 -146 800 -161 192 -21 296 -51 339 -99 l19
-21 -79 -1 c-43 -1 -110 -5 -149 -9 -51 -6 -30 -8 80 -5 l150 4 141 -157 c127
-142 150 -173 224 -307 163 -294 358 -586 538 -804 161 -194 457 -458 590
-525 48 -24 171 -44 191 -31 7 4 -5 27 -34 63 -174 215 -259 341 -336 497
-140 285 -357 832 -394 992 -22 95 -20 198 5 233 l20 28 -25 54 c-36 78 -32
120 17 175 l20 22 -26 34 c-34 45 -34 87 4 199 48 143 393 852 494 1016 89
143 137 202 277 333 72 68 126 125 120 127 -17 6 -158 -27 -216 -50 -109 -43
-327 -203 -494 -363 -164 -157 -513 -576 -668 -801 -56 -82 -85 -113 -153
-166 -48 -36 -131 -116 -190 -182 l-105 -118 -145 4 c-121 4 -167 10 -280 37
-344 84 -586 149 -830 222 -279 84 -1158 375 -1370 454 -573 213 -897 320
-1195 394 -238 59 -480 109 -660 137 -88 13 -177 27 -198 30 -30 5 -37 9 -32
22 5 14 4 15 -6 5 -14 -14 -67 -17 -117 -7 l-31 6 21 42 21 41 -41 -40 c-43
-41 -57 -44 -134 -29 -26 5 -27 8 -21 50 4 29 2 44 -5 44 -13 0 -42 -52 -42
-75 0 -12 -7 -15 -32 -11 -18 3 -63 8 -100 11 -66 6 -68 7 -68 34 0 16 10 40
21 55 30 38 19 41 -24 5 -28 -23 -37 -38 -37 -60 0 -24 -4 -29 -17 -25 -10 3
-69 8 -130 12 -62 3 -113 8 -113 10 0 9 26 62 43 87 10 15 15 27 11 27 -18 0
-77 -55 -86 -81 -9 -27 -14 -29 -61 -29 -29 0 -69 3 -90 6 -45 8 -44 19 14
108 21 33 37 61 35 63 -2 2 -15 -3 -30 -11 -35 -18 -73 -70 -88 -119 l-11 -37
-91 6 c-50 4 -92 7 -92 8 -1 0 7 20 18 44 11 23 50 72 86 108 35 35 62 67 59
70 -2 3 -20 -1 -38 -9 -47 -20 -133 -114 -149 -162 -7 -22 -15 -43 -19 -47 -3
-4 -46 -4 -96 0 l-90 7 143 147 c78 80 142 149 142 152 0 4 -19 -3 -41 -15
-46 -23 -203 -171 -259 -243 -31 -40 -39 -45 -76 -46 -23 0 -62 3 -87 6 l-45
7 69 88 c74 93 154 166 257 233 65 43 63 58 -5 35 -92 -30 -253 -181 -344
-321 -21 -33 -29 -38 -62 -38 l-37 0 59 93 c72 111 153 202 267 299 47 40 81
74 75 76 -26 9 -123 -61 -216 -153 -74 -74 -117 -128 -165 -207 l-65 -106 -55
-4 c-30 -2 -57 -3 -59 -1 -2 1 20 45 49 96 81 148 191 274 390 451 69 62 58
57 -60 -23 -166 -113 -299 -268 -394 -458 l-36 -73 -64 0 c-34 0 -105 -3 -157
-6 -93 -6 -94 -6 -68 13 39 27 373 347 554 530 326 329 -17 44 -430 -358 -77
-75 -160 -150 -184 -168 -42 -30 -81 -41 -81 -23 0 29 97 147 226 274 156 154
259 240 397 332 78 52 158 115 147 115 -3 1 -29 -12 -58 -29z m-3234 -1837
c114 -84 105 -248 -18 -310 -138 -70 -285 46 -256 202 8 42 58 102 101 122 43
19 138 12 173 -14z m-553 -615 c101 -38 118 -41 210 -41 70 0 111 5 139 17 21
9 40 16 41 16 1 0 -4 -28 -11 -62 -7 -35 -13 -80 -14 -100 0 -44 -19 -65 -65
-74 -48 -9 -108 28 -187 116 -52 58 -79 79 -160 121 -54 27 -98 52 -98 56 0 3
8 2 18 -2 9 -4 67 -25 127 -47z"/>
<path d="M1034 6776 c-29 -29 -34 -41 -34 -81 0 -40 5 -52 34 -81 29 -29 41
-34 81 -34 40 0 52 5 81 34 29 29 34 41 34 81 0 40 -5 52 -34 81 -29 29 -41
34 -81 34 -40 0 -52 -5 -81 -34z m135 -20 c16 -20 3 -46 -24 -46 -27 0 -36 17
-23 43 10 20 31 22 47 3z"/>
<path d="M4910 6964 c-200 -17 -290 -28 -407 -50 -257 -47 -487 -110 -665
-182 -97 -39 -367 -198 -368 -217 0 -17 87 -64 158 -85 93 -28 168 -67 197
-102 22 -26 25 -39 25 -112 0 -105 13 -126 76 -126 49 0 71 9 124 51 62 49
247 118 400 149 141 28 367 50 615 59 252 10 253 10 592 132 109 39 241 86
293 105 52 18 131 38 174 45 47 6 119 27 177 50 86 35 107 39 181 39 79 0 86
2 137 36 29 20 49 39 45 44 -5 4 -94 30 -199 59 -323 87 -471 102 -1060 106
-247 1 -470 1 -495 -1z"/>
<path d="M3145 6875 c49 -163 77 -330 94 -545 19 -233 33 -610 26 -666 -15
-119 -81 -254 -176 -358 -82 -90 -149 -122 -326 -157 -88 -17 -91 -18 -33 -13
212 17 331 84 441 246 109 159 125 246 110 562 -28 555 -57 771 -120 906 -12
25 -19 36 -16 25z"/>
<path d="M2271 6507 c-1 -53 5 -84 29 -145 66 -173 86 -310 54 -378 -25 -53
-145 -157 -234 -204 -93 -48 -240 -88 -355 -97 -44 -3 -87 -10 -95 -15 -26
-16 169 2 257 23 194 47 352 145 432 266 26 38 31 56 31 104 0 71 -28 192 -69
299 -17 44 -35 110 -40 147 l-8 68 -2 -68z"/>
<path d="M10623 6313 c9 -2 23 -2 30 0 6 3 -1 5 -18 5 -16 0 -22 -2 -12 -5z"/>
<path d="M10568 6303 c6 -2 18 -2 25 0 6 3 1 5 -13 5 -14 0 -19 -2 -12 -5z"/>
<path d="M10410 6277 c-52 -12 -88 -22 -80 -24 8 -1 62 8 120 21 58 13 94 24
80 24 -14 0 -68 -9 -120 -21z"/>
<path d="M34 6242 c15 -30 45 -64 83 -93 56 -44 263 -188 293 -204 33 -18 -9
15 -105 80 -188 128 -232 164 -260 216 -34 63 -43 64 -11 1z"/>
<path d="M10250 6240 c-20 -6 -21 -8 -5 -8 11 0 31 4 45 8 20 6 21 8 5 8 -11
0 -31 -4 -45 -8z"/>
<path d="M10102 6208 c-46 -11 -81 -23 -78 -25 5 -5 187 35 195 43 9 8 -37 1
-117 -18z"/>
<path d="M9988 6173 c7 -3 16 -2 19 1 4 3 -2 6 -13 5 -11 0 -14 -3 -6 -6z"/>
<path d="M9935 6165 c-5 -2 -63 -18 -128 -36 -65 -17 -116 -33 -113 -36 4 -4
267 66 275 73 5 5 -20 4 -34 -1z"/>
<path d="M9605 6070 c-27 -10 -43 -18 -35 -18 8 0 38 8 65 18 28 10 43 18 35
18 -8 0 -37 -8 -65 -18z"/>
<path d="M9415 6013 c-60 -20 -105 -38 -100 -40 6 -2 62 15 125 36 63 22 108
39 100 39 -8 0 -64 -16 -125 -35z"/>
<path d="M8885 5838 c-214 -72 -385 -133 -380 -134 6 -2 188 57 405 131 217
73 388 134 380 134 -8 0 -190 -59 -405 -131z"/>
<path d="M430 5937 c0 -7 132 -88 205 -126 79 -42 54 -25 -76 53 -58 34 -110
66 -117 70 -7 4 -12 5 -12 3z"/>
<path d="M700 5775 c0 -7 341 -177 346 -173 2 2 -75 43 -171 91 -96 48 -175
85 -175 82z"/>
<path d="M8375 5664 c-244 -84 -335 -117 -332 -121 4 -4 407 134 415 142 9 9
-13 4 -83 -21z"/>
<path d="M1100 5575 c25 -13 50 -24 55 -24 6 0 -10 11 -35 24 -25 13 -49 24
-55 24 -5 0 10 -11 35 -24z"/>
<path d="M1225 5520 c33 -16 65 -29 70 -29 13 1 -107 57 -120 57 -5 0 17 -13
50 -28z"/>
<path d="M7922 5507 c-45 -16 -81 -31 -79 -33 5 -5 176 52 185 61 11 11 -26 1
-106 -28z"/>
<path d="M1320 5480 c8 -5 20 -10 25 -10 6 0 3 5 -5 10 -8 5 -19 10 -25 10 -5
0 -3 -5 5 -10z"/>
<path d="M1370 5460 c8 -5 20 -10 25 -10 6 0 3 5 -5 10 -8 5 -19 10 -25 10 -5
0 -3 -5 5 -10z"/>
<path d="M7785 5458 c-16 -6 -142 -52 -280 -103 -137 -51 -319 -112 -402 -136
-84 -23 -151 -44 -149 -47 6 -6 226 55 334 92 115 39 535 197 541 202 7 7 -12
3 -44 -8z"/>
<path d="M1445 5431 c22 -10 51 -21 65 -25 14 -3 7 2 -15 13 -22 10 -51 21
-65 25 -14 3 -7 -2 15 -13z"/>
<path d="M1565 5386 c17 -7 41 -16 55 -20 20 -5 19 -3 -5 8 -16 7 -41 16 -55
20 -20 5 -19 3 5 -8z"/>
<path d="M1651 5357 c8 -10 151 -58 156 -53 2 2 -26 14 -64 26 -37 13 -75 25
-83 28 -8 3 -12 2 -9 -1z"/>
<path d="M1925 5260 c27 -12 43 -12 25 0 -8 5 -22 9 -30 9 -10 0 -8 -3 5 -9z"/>
<path d="M2015 5230 c28 -10 57 -18 65 -18 8 0 -7 8 -35 18 -27 10 -57 18 -65
18 -8 0 8 -8 35 -18z"/>
<path d="M2100 5207 c8 -8 191 -59 196 -55 2 3 -33 15 -78 28 -117 32 -124 34
-118 27z"/>
<path d="M6885 5160 c-25 -11 1 -11 35 0 20 6 21 8 5 8 -11 0 -29 -3 -40 -8z"/>
<path d="M2311 5146 c6 -7 206 -56 221 -55 13 1 -198 58 -216 59 -5 0 -7 -2
-5 -4z"/>
<path d="M6805 5140 c-25 -11 1 -11 35 0 20 6 21 8 5 8 -11 0 -29 -3 -40 -8z"/>
<path d="M6720 5120 c-20 -6 -21 -8 -5 -8 11 0 31 4 45 8 20 6 21 8 5 8 -11 0
-31 -4 -45 -8z"/>
<path d="M6668 5103 c7 -3 16 -2 19 1 4 3 -2 6 -13 5 -11 0 -14 -3 -6 -6z"/>
<path d="M6590 5090 c-20 -6 -21 -8 -5 -8 11 0 31 4 45 8 20 6 21 8 5 8 -11 0
-31 -4 -45 -8z"/>
<path d="M2558 5083 c6 -2 18 -2 25 0 6 3 1 5 -13 5 -14 0 -19 -2 -12 -5z"/>
<path d="M2608 5073 c6 -2 18 -2 25 0 6 3 1 5 -13 5 -14 0 -19 -2 -12 -5z"/>
<path d="M6500 5070 c-20 -6 -21 -8 -5 -8 11 0 31 4 45 8 20 6 21 8 5 8 -11 0
-31 -4 -45 -8z"/>
<path d="M2675 5060 c17 -4 41 -8 55 -8 22 0 22 1 -5 8 -16 4 -41 8 -55 8 -22
0 -22 -1 5 -8z"/>
<path d="M6438 5053 c6 -2 18 -2 25 0 6 3 1 5 -13 5 -14 0 -19 -2 -12 -5z"/>
<path d="M2773 5043 c9 -2 23 -2 30 0 6 3 -1 5 -18 5 -16 0 -22 -2 -12 -5z"/>
<path d="M6355 5040 c-27 -7 -27 -8 -5 -8 14 0 36 4 50 8 20 6 21 8 5 8 -11 0
-33 -4 -50 -8z"/>
<path d="M2833 5033 c9 -2 25 -2 35 0 9 3 1 5 -18 5 -19 0 -27 -2 -17 -5z"/>
<path d="M2925 5019 c22 -4 54 -8 70 -7 22 0 19 3 -15 9 -60 10 -108 9 -55 -2z"/>
<path d="M6255 5020 c-27 -7 -27 -8 -5 -8 14 0 36 4 50 8 20 6 21 8 5 8 -11 0
-33 -4 -50 -8z"/>
<path d="M3048 5003 c12 -2 30 -2 40 0 9 3 -1 5 -23 4 -22 0 -30 -2 -17 -4z"/>
<path d="M6188 5003 c6 -2 18 -2 25 0 6 3 1 5 -13 5 -14 0 -19 -2 -12 -5z"/>
<path d="M3128 4993 c12 -2 30 -2 40 0 9 3 -1 5 -23 4 -22 0 -30 -2 -17 -4z"/>
<path d="M6133 4993 c9 -2 23 -2 30 0 6 3 -1 5 -18 5 -16 0 -22 -2 -12 -5z"/>
<path d="M3218 4983 c12 -2 32 -2 45 0 12 2 2 4 -23 4 -25 0 -35 -2 -22 -4z"/>
<path d="M6035 4980 c-27 -7 -27 -8 -5 -8 14 0 39 4 55 8 27 7 27 8 5 8 -14 0
-38 -4 -55 -8z"/>
<path d="M3308 4973 c12 -2 32 -2 45 0 12 2 2 4 -23 4 -25 0 -35 -2 -22 -4z"/>
<path d="M3413 4963 c15 -2 39 -2 55 0 15 2 2 4 -28 4 -30 0 -43 -2 -27 -4z"/>
<path d="M5953 4963 c9 -2 25 -2 35 0 9 3 1 5 -18 5 -19 0 -27 -2 -17 -5z"/>
<path d="M3528 4953 c18 -2 45 -2 60 0 15 2 0 4 -33 4 -33 0 -45 -2 -27 -4z"/>
<path d="M5893 4953 c9 -2 23 -2 30 0 6 3 -1 5 -18 5 -16 0 -22 -2 -12 -5z"/>
<path d="M3658 4943 c18 -2 45 -2 60 0 15 2 0 4 -33 4 -33 0 -45 -2 -27 -4z"/>
<path d="M5823 4943 c9 -2 25 -2 35 0 9 3 1 5 -18 5 -19 0 -27 -2 -17 -5z"/>
<path d="M3787 4933 c18 -2 50 -2 70 0 21 2 7 4 -32 4 -38 0 -55 -2 -38 -4z"/>
<path d="M5748 4933 c12 -2 30 -2 40 0 9 3 -1 5 -23 4 -22 0 -30 -2 -17 -4z"/>
<path d="M4171 4914 c-1 -27 27 -120 49 -164 23 -45 92 -124 133 -151 23 -15
20 -11 -10 15 -60 53 -113 138 -144 235 -15 47 -28 77 -28 65z"/>
<path d="M5668 4923 c12 -2 30 -2 40 0 9 3 -1 5 -23 4 -22 0 -30 -2 -17 -4z"/>
<path d="M4001 4903 c-1 -34 55 -263 84 -338 50 -135 123 -259 188 -321 61
-58 56 -47 -14 32 -77 86 -162 273 -205 447 -36 148 -53 205 -53 180z"/>
<path d="M5573 4913 c15 -2 37 -2 50 0 12 2 0 4 -28 4 -27 0 -38 -2 -22 -4z"/>
<path d="M4265 4894 c51 -41 211 -94 280 -93 17 0 -6 8 -50 17 -44 10 -109 31
-145 49 l-65 31 295 -5 c162 -3 293 -3 290 -1 -3 3 -144 8 -315 12 -287 6
-309 5 -290 -10z"/>
<path d="M5438 4903 c17 -2 47 -2 65 0 17 2 3 4 -33 4 -36 0 -50 -2 -32 -4z"/>
<path d="M5178 4893 c39 -2 105 -2 145 0 39 1 7 3 -73 3 -80 0 -112 -2 -72 -3z"/>
<path d="M4091 4855 c-1 -34 24 -117 55 -180 28 -58 145 -189 189 -213 11 -5
-16 27 -60 71 -86 88 -142 183 -169 287 -8 30 -15 46 -15 35z"/>
<path d="M4412 4669 c8 -23 89 -68 171 -93 42 -13 74 -20 71 -15 -2 5 -26 15
-53 23 -53 16 -121 48 -165 79 -20 14 -27 16 -24 6z"/>
</g>
</svg>
